<svg width="642" height="527" viewBox="0 0 642 527" fill="none" xmlns="http://www.w3.org/2000/svg">
<path fill-rule="evenodd" clip-rule="evenodd" d="M412.749 217.619L286.8 17C280.1 6.4 268.5 0 256 0C243.5 0 231.8 6.4 225.2 17L8.6 362.4C3 371.3 0 381.6 0 392.1C0 423 25 448 55.9 447.9H456.1H462.403C462.136 444.969 462 442 462 439C462 406.646 477.84 377.991 502.189 360.369L441.231 263.149L480 199.6L567.029 342.328C597.521 344.826 624.019 361.427 639.988 385.596C639.774 374.813 636.692 364.256 631.1 355L499.1 138.7C495 132.1 487.8 128 480 128C472.2 128 465 132.1 460.9 138.7L412.749 217.619ZM464 392.1C464 396.5 460.5 400 456.1 400H55.9C51.5 400 48 396.5 48 392.1C48 390.6 48.4 389.2 49.2 387.9L256 58.3L462.8 387.9C463.6 389.2 464 390.6 464 392.1Z" fill="black"/>
<circle cx="562" cy="447" r="80" fill="black"/>
</svg>
